<?xml version="1.0" standalone="no"?>
<!DOCTYPE svg PUBLIC "-//W3C//DTD SVG 20010904//EN"
 "http://www.w3.org/TR/2001/REC-SVG-20010904/DTD/svg10.dtd">
<svg version="1.0" xmlns="http://www.w3.org/2000/svg"
 width="256.000000pt" height="256.000000pt" viewBox="0 0 256.000000 256.000000"
 preserveAspectRatio="xMidYMid meet">

<g transform="translate(0.000000,256.000000) scale(0.100000,-0.100000)"
fill="#2b3944" stroke="none">
<path d="M855 2544 c-556 -98 -931 -623 -840 -1179 66 -404 359 -724 763 -832
85 -23 117 -26 252 -26 135 0 167 3 251 25 111 30 226 81 317 140 l63 41 352
-350 c369 -368 376 -374 447 -358 67 15 108 81 95 153 -6 32 -55 86 -358 389
l-350 352 35 54 c75 113 134 253 159 382 8 42 14 126 13 210 -2 164 -27 279
-92 418 -198 422 -653 661 -1107 581z m361 -264 c530 -134 758 -758 440 -1204
-217 -303 -632 -404 -971 -237 -264 131 -425 393 -425 691 0 356 236 661 580
750 104 26 270 27 376 0z"/>
</g>
</svg>
